<?xml version="1.0" standalone="no"?><!DOCTYPE svg PUBLIC "-//W3C//DTD SVG 1.1//EN" "http://www.w3.org/Graphics/SVG/1.1/DTD/svg11.dtd"><svg t="1769218999233" class="icon" viewBox="0 0 1024 1024" version="1.1" xmlns="http://www.w3.org/2000/svg" p-id="16240" xmlns:xlink="http://www.w3.org/1999/xlink" width="200" height="200"><path d="M715.744 624.32c42.432 0 78.528 26.368 93.28 63.52h66.976L708.576 231.36H265.76l7.744 456.48h348.992a100.352 100.352 0 0 1 93.248-63.52z" fill="#CFCFCF" p-id="16241"></path><path d="M228.64 647.456h57.856v41.088H228.64z" fill="#CFCFCF" p-id="16242"></path><path d="M232.928 231.36H95.936L7.648 371.424l7.744 316.384h19.456c14.752-37.152 50.848-63.52 93.28-63.52s78.528 26.368 93.28 63.52h19.296L232.928 231.36z m-191.424 309.184v-171.808l50.24-89.152h119.968l7.744 260.96H41.504zM717.504 231.36l167.424 456.48 72.608 28.544 58.848-48.352-21.152-136.928-212.928-299.744z" fill="#CFCFCF" p-id="16243"></path><path d="M128 724.832m-93.088 0a93.088 93.088 0 1 0 186.176 0 93.088 93.088 0 1 0-186.176 0Z" fill="#CFCFCF" p-id="16244"></path><path d="M715.776 724.832m-93.088 0a93.088 93.088 0 1 0 186.176 0 93.088 93.088 0 1 0-186.176 0Z" fill="#CFCFCF" p-id="16245"></path></svg>