<?xml version="1.0" standalone="no"?><!DOCTYPE svg PUBLIC "-//W3C//DTD SVG 1.1//EN" "http://www.w3.org/Graphics/SVG/1.1/DTD/svg11.dtd"><svg t="1769219009688" class="icon" viewBox="0 0 1024 1024" version="1.1" xmlns="http://www.w3.org/2000/svg" p-id="16396" xmlns:xlink="http://www.w3.org/1999/xlink" width="200" height="200"><path d="M506.88-0.046548m72.407734 72.407734l362.038672 362.038672q72.407734 72.407734 0 144.815469l-362.038672 362.038672q-72.407734 72.407734-144.815468 0l-362.038672-362.038672q-72.407734-72.407734 0-144.815469l362.038672-362.038672q72.407734-72.407734 144.815468 0Z" fill="#F0BAE4" p-id="16397"></path><path d="M653.6704 292.5568l284.5696 286.7712L614.4 906.9056l-158.6176-136.5504 81.664-115.0464c34.6112-5.4784 56.064-13.4144 64.3072-23.8592 2.2016-2.7648 19.5072-115.712 51.9168-338.8928z" fill="#DB4DBA" p-id="16398"></path><path d="M511.1808 768A256.3072 256.3072 0 0 1 256 534.3232a23.8592 23.8592 0 0 1 42.0864-14.1824c0.2048 0.256 0.3584 0 0.3584-0.512 29.2352 31.2832 70.1952 49.0496 113.0496 48.9984a156.672 156.672 0 0 0 156.672-156.672 154.624 154.624 0 0 0-49.4592-113.5104c0-0.1024 0.3584-0.1024 0.256-0.2048a24.064 24.064 0 0 1 15.1552-41.728A256.256 256.256 0 0 1 511.1808 768z" fill="#FFFFFF" p-id="16399"></path></svg>