<?xml version="1.0" standalone="no"?><!DOCTYPE svg PUBLIC "-//W3C//DTD SVG 1.1//EN" "http://www.w3.org/Graphics/SVG/1.1/DTD/svg11.dtd"><svg t="1769244712024" class="icon" viewBox="0 0 1024 1024" version="1.1" xmlns="http://www.w3.org/2000/svg" p-id="3833" xmlns:xlink="http://www.w3.org/1999/xlink" width="200" height="200"><path d="M740.352 300.032h121.344l31.744 31.744V655.36l-31.744 31.744H374.784L343.04 655.36V331.776l9.216-9.216H282.112l-12.288-48.128h463.872l6.656 25.6zM66.56 414.208h159.744l12.288 50.176H78.848L66.56 414.208z m0 156.672l6.144 25.088h241.152l-6.144-25.088H66.56z m258.56 249.856h241.152l6.144 25.088h-240.64l-6.656-25.088z m-238.592-74.752h463.872l12.288 48.64H98.816l-12.288-48.64z m13.824-553.472h463.872l12.288 48.128H112.128l-11.776-48.128z m674.304 431.104l-107.52-89.6-29.696 24.576-19.968 16.384-19.968-16.384-29.696-24.064L460.8 623.616h313.856z m-368.64-35.328l112.64-93.696-112.64-92.16v185.856z m51.712-225.28l159.744 130.56 157.184-130.56H457.728z m372.224 35.84l-113.664 94.72 113.664 94.72v-189.44z" fill="#231815" p-id="3834"></path></svg>