<?xml version="1.0" standalone="no"?><!DOCTYPE svg PUBLIC "-//W3C//DTD SVG 1.1//EN" "http://www.w3.org/Graphics/SVG/1.1/DTD/svg11.dtd"><svg t="1769266575431" class="icon" viewBox="0 0 1024 1024" version="1.1" xmlns="http://www.w3.org/2000/svg" p-id="8219" xmlns:xlink="http://www.w3.org/1999/xlink" width="200" height="200"><path d="M844.406154 573.44m-39.384616 0a39.384615 39.384615 0 1 0 78.769231 0 39.384615 39.384615 0 1 0-78.769231 0Z" fill="#94C1FF" p-id="8220"></path><path d="M521.452308 762.486154l-23.63077-9.452308-23.630769 9.452308v244.184615h47.261539z" fill="#FFFFFF" p-id="8221"></path><path d="M978.313846 1006.670769h-456.861538V762.486154l-15.753846-6.301539 110.276923 47.261539 77.193846-108.701539 33.083077 23.63077c47.261538 26.781538 119.729231 55.138462 157.538461 67.741538 63.015385 23.630769 94.523077 47.261538 94.523077 110.276923v110.276923zM474.190769 762.486154V1008.246154h-456.861538v-110.276923c0-63.015385 31.507692-86.646154 94.523077-110.276923 37.809231-14.178462 110.276923-42.535385 157.538461-67.741539l33.083077-23.630769 77.193846 108.701538 110.276923-47.261538-15.753846 4.726154z" fill="#94C1FF" p-id="8222"></path><path d="M48.836923 912.147692c0-63.015385 31.507692-86.646154 94.523077-110.276923 37.809231-14.178462 110.276923-42.535385 157.538462-67.741538l20.48-14.178462-17.329231-25.206154-33.083077 23.63077c-47.261538 26.781538-119.729231 55.138462-157.538462 67.741538-63.015385 23.630769-94.523077 47.261538-94.523077 110.276923v110.276923h31.507693c-1.575385-18.904615-1.575385-51.987692-1.575385-94.523077z" fill="#D7E9FF" p-id="8223"></path><path d="M664.812308 634.88l-166.99077 88.221538-168.566153-88.221538-28.356923 56.713846 78.76923 110.276923 118.153846-48.836923 118.153847 48.836923 78.76923-110.276923z" fill="#E6E9ED" p-id="8224"></path><path d="M664.812308 634.88l-166.99077 88.221538-168.566153-88.221538-28.356923 56.713846 78.76923 110.276923 118.153846-48.836923 118.153847 48.836923 78.76923-110.276923z" fill="#FFFFFF" p-id="8225"></path><path d="M642.756923 135.483077S811.323077 111.852308 773.513846 362.338462l-69.316923-113.427693s-110.276923 45.686154-209.526154 45.686154c-99.249231 0-207.950769-45.686154-207.950769-45.686154L220.553846 362.338462C182.744615-56.713846 671.113846 18.904615 688.443077 22.055385c-74.043077 29.932308-45.686154 113.427692-45.686154 113.427692z" fill="#94C1FF" p-id="8226"></path><path d="M642.756923 135.483077s116.578462-20.48 103.975385 182.744615l26.781538 44.11077c37.809231-250.486154-130.756923-226.855385-130.756923-226.855385z" fill="#5C9EFF" p-id="8227"></path><path d="M603.372308 15.753846C461.587692 12.603077 190.621538 47.261538 220.553846 362.338462l29.932308-50.412308C253.636923 63.015385 466.313846 17.329231 603.372308 15.753846z" fill="#D7E9FF" p-id="8228"></path><path d="M773.513846 360.763077v31.507692c0 181.169231-170.141538 330.830769-275.692308 330.830769-105.550769 0-275.692308-149.661538-275.692307-330.830769v-31.507692l66.166154-113.427692s108.701538 45.686154 207.950769 45.686153c99.249231 0 209.526154-45.686154 209.526154-45.686153l67.741538 113.427692z" fill="#D7E9FF" p-id="8229"></path><path d="M253.636923 392.270769v-31.507692l59.864615-103.975385c-15.753846-6.301538-25.206154-9.452308-25.206153-9.452307l-66.166154 113.427692v31.507692c0 181.169231 170.141538 330.830769 275.692307 330.830769 4.726154 0 11.027692 0 15.753847-1.575384-105.550769-12.603077-259.938462-157.538462-259.938462-329.255385z" fill="#FFFFFF" p-id="8230"></path><path d="M742.006154 392.270769v-31.507692l-59.864616-103.975385c15.753846-6.301538 25.206154-9.452308 25.206154-9.452307l66.166154 113.427692v31.507692c0 181.169231-170.141538 330.830769-275.692308 330.830769-4.726154 0-11.027692 0-15.753846-1.575384 105.550769-12.603077 259.938462-157.538462 259.938462-329.255385z" fill="#94C1FF" p-id="8231"></path><path d="M946.806154 912.147692c0-63.015385-31.507692-86.646154-94.523077-110.276923-37.809231-14.178462-110.276923-42.535385-157.538462-67.741538l-20.48-14.178462 17.329231-25.206154 33.083077 23.63077c47.261538 26.781538 119.729231 55.138462 157.538462 67.741538 63.015385 23.630769 94.523077 47.261538 94.523077 110.276923v110.276923h-31.507693c1.575385-18.904615 1.575385-51.987692 1.575385-94.523077z" fill="#5C9EFF" p-id="8232"></path><path d="M978.313846 841.255385l-141.784615-116.578462-141.784616 116.578462V1008.246154h283.569231z" fill="#D7E9FF" p-id="8233"></path><path d="M694.744615 841.255385V1008.246154h15.753847V828.652308z" fill="#FFFFFF" p-id="8234"></path><path d="M978.313846 841.255385V1008.246154h-15.753846V828.652308zM734.129231 882.215385h94.523077v78.76923h-94.523077zM858.584615 811.323077c0 12.603077-11.027692 23.630769-23.630769 23.630769s-23.630769-11.027692-23.630769-23.630769 11.027692-23.630769 23.630769-23.630769c14.178462 0 23.630769 11.027692 23.630769 23.630769zM663.236923 866.461538l173.292308-141.784615v-31.507692l-173.292308 141.784615zM836.529231 693.169231v31.507692l173.292307 141.784615v-31.507692zM860.16 882.215385h78.769231v126.030769h-78.769231z" fill="#94C1FF" p-id="8235"></path><path d="M844.406154 541.932308m-39.384616 0a39.384615 39.384615 0 1 0 78.769231 0 39.384615 39.384615 0 1 0-78.769231 0Z" fill="#D7E9FF" p-id="8236"></path><path d="M970.436923 667.963077m-39.384615 0a39.384615 39.384615 0 1 0 78.76923 0 39.384615 39.384615 0 1 0-78.76923 0Z" fill="#94C1FF" p-id="8237"></path><path d="M970.436923 636.455385m-39.384615 0a39.384615 39.384615 0 1 0 78.76923 0 39.384615 39.384615 0 1 0-78.76923 0Z" fill="#D7E9FF" p-id="8238"></path><path d="M820.775385 541.932308c0-18.904615 14.178462-34.658462 31.507692-37.809231-3.150769 0-4.726154-1.575385-7.876923-1.575385-22.055385 0-39.384615 17.329231-39.384616 39.384616s17.329231 39.384615 39.384616 39.384615c3.150769 0 4.726154 0 7.876923-1.575385-18.904615-1.575385-31.507692-17.329231-31.507692-37.80923z" fill="#FFFFFF" p-id="8239"></path><path d="M868.036923 541.932308c0 18.904615-14.178462 34.658462-31.507692 37.80923 3.150769 0 4.726154 1.575385 7.876923 1.575385 22.055385 0 39.384615-17.329231 39.384615-39.384615s-17.329231-39.384615-39.384615-39.384616c-3.150769 0-4.726154 0-7.876923 1.575385 17.329231 3.150769 31.507692 18.904615 31.507692 37.809231z" fill="#94C1FF" p-id="8240"></path><path d="M946.806154 636.455385c0-18.904615 14.178462-34.658462 31.507692-37.809231-3.150769 0-4.726154-1.575385-7.876923-1.575385-22.055385 0-39.384615 17.329231-39.384615 39.384616s17.329231 39.384615 39.384615 39.384615c3.150769 0 4.726154 0 7.876923-1.575385-18.904615-1.575385-31.507692-17.329231-31.507692-37.80923z" fill="#FFFFFF" p-id="8241"></path><path d="M994.067692 636.455385c0 18.904615-14.178462 34.658462-31.507692 37.80923 3.150769 0 4.726154 1.575385 7.876923 1.575385 22.055385 0 39.384615-17.329231 39.384615-39.384615s-17.329231-39.384615-39.384615-39.384616c-3.150769 0-4.726154 0-7.876923 1.575385 17.329231 3.150769 31.507692 18.904615 31.507692 37.809231z" fill="#94C1FF" p-id="8242"></path><path d="M883.790769 951.532308c-4.726154 0-7.876923-3.150769-7.876923-7.876923s3.150769-7.876923 7.876923-7.876923 7.876923 3.150769 7.876923 7.876923-3.150769 7.876923-7.876923 7.876923zM663.236923 841.255385c-1.575385 0-4.726154-1.575385-6.301538-3.15077-3.150769-3.150769-1.575385-7.876923 1.575384-11.027692l173.292308-141.784615c3.150769-3.150769 7.876923-1.575385 11.027692 1.575384s1.575385 7.876923-1.575384 11.027693l-173.292308 141.784615c-1.575385 1.575385-3.150769 1.575385-4.726154 1.575385z" fill="#116FFF" p-id="8243"></path><path d="M1009.821538 841.255385c-1.575385 0-3.150769 0-4.726153-1.575385l-173.292308-141.784615c-3.150769-3.150769-3.150769-7.876923-1.575385-11.027693s7.876923-3.150769 11.027693-1.575384l173.292307 141.784615c3.150769 3.150769 3.150769 7.876923 1.575385 11.027692-1.575385 3.150769-4.726154 3.150769-6.301539 3.15077zM663.236923 872.763077c-1.575385 0-4.726154-1.575385-6.301538-3.150769-3.150769-3.150769-1.575385-7.876923 1.575384-11.027693l173.292308-141.784615c3.150769-3.150769 7.876923-1.575385 11.027692 1.575385s1.575385 7.876923-1.575384 11.027692l-173.292308 141.784615c-1.575385 1.575385-3.150769 1.575385-4.726154 1.575385z" fill="#116FFF" p-id="8244"></path><path d="M1009.821538 872.763077c-1.575385 0-3.150769 0-4.726153-1.575385l-173.292308-141.784615c-3.150769-3.150769-3.150769-7.876923-1.575385-11.027692s7.876923-3.150769 11.027693-1.575385l173.292307 141.784615c3.150769 3.150769 3.150769 7.876923 1.575385 11.027693-1.575385 3.150769-4.726154 3.150769-6.301539 3.150769zM694.744615 1014.547692c-4.726154 0-7.876923-3.150769-7.876923-7.876923v-149.661538c0-4.726154 3.150769-7.876923 7.876923-7.876923s7.876923 3.150769 7.876923 7.876923v149.661538c0 4.726154-4.726154 7.876923-7.876923 7.876923z" fill="#116FFF" p-id="8245"></path><path d="M978.313846 1014.547692c-4.726154 0-7.876923-3.150769-7.876923-7.876923v-149.661538c0-4.726154 3.150769-7.876923 7.876923-7.876923s7.876923 3.150769 7.876923 7.876923v149.661538c0 4.726154-4.726154 7.876923-7.876923 7.876923z" fill="#116FFF" p-id="8246"></path><path d="M994.067692 1014.547692h-315.076923c-4.726154 0-7.876923-3.150769-7.876923-7.876923s3.150769-7.876923 7.876923-7.876923h315.076923c4.726154 0 7.876923 3.150769 7.876923 7.876923s-4.726154 7.876923-7.876923 7.876923zM828.652308 967.286154h-94.523077c-4.726154 0-7.876923-3.150769-7.876923-7.876923v-78.769231c0-4.726154 3.150769-7.876923 7.876923-7.876923h94.523077c4.726154 0 7.876923 3.150769 7.876923 7.876923v78.769231c0 4.726154-4.726154 7.876923-7.876923 7.876923z m-86.646154-15.753846h78.769231v-63.015385h-78.769231v63.015385z" fill="#116FFF" p-id="8247"></path><path d="M860.16 1014.547692c-4.726154 0-7.876923-3.150769-7.876923-7.876923v-126.030769c0-4.726154 3.150769-7.876923 7.876923-7.876923s7.876923 3.150769 7.876923 7.876923v126.030769c0 4.726154-4.726154 7.876923-7.876923 7.876923z" fill="#116FFF" p-id="8248"></path><path d="M938.929231 888.516923h-78.769231c-4.726154 0-7.876923-3.150769-7.876923-7.876923s3.150769-7.876923 7.876923-7.876923h78.769231c4.726154 0 7.876923 3.150769 7.876923 7.876923s-4.726154 7.876923-7.876923 7.876923z" fill="#116FFF" p-id="8249"></path><path d="M938.929231 1014.547692c-4.726154 0-7.876923-3.150769-7.876923-7.876923v-126.030769c0-4.726154 3.150769-7.876923 7.876923-7.876923s7.876923 3.150769 7.876923 7.876923v126.030769c0 4.726154-4.726154 7.876923-7.876923 7.876923zM812.898462 927.901538h-63.015385c-4.726154 0-7.876923-3.150769-7.876923-7.876923s3.150769-7.876923 7.876923-7.876923h63.015385c4.726154 0 7.876923 3.150769 7.876923 7.876923s-4.726154 7.876923-7.876923 7.876923z" fill="#116FFF" p-id="8250"></path><path d="M781.390769 951.532308c-4.726154 0-7.876923-3.150769-7.876923-7.876923v-47.261539c0-4.726154 3.150769-7.876923 7.876923-7.876923s7.876923 3.150769 7.876923 7.876923v47.261539c0 4.726154-4.726154 7.876923-7.876923 7.876923zM836.529231 841.255385c-17.329231 0-31.507692-14.178462-31.507693-31.507693s14.178462-31.507692 31.507693-31.507692 31.507692 14.178462 31.507692 31.507692-14.178462 31.507692-31.507692 31.507693z m0-47.261539c-9.452308 0-15.753846 6.301538-15.753846 15.753846s6.301538 15.753846 15.753846 15.753846 15.753846-6.301538 15.753846-15.753846-7.876923-15.753846-15.753846-15.753846z" fill="#116FFF" p-id="8251"></path><path d="M970.436923 683.716923c-26.781538 0-47.261538-20.48-47.261538-47.261538s20.48-47.261538 47.261538-47.261539 47.261538 20.48 47.261539 47.261539-22.055385 47.261538-47.261539 47.261538z m0-78.769231c-17.329231 0-31.507692 14.178462-31.507692 31.507693s14.178462 31.507692 31.507692 31.507692 31.507692-14.178462 31.507692-31.507692-14.178462-31.507692-31.507692-31.507693z" fill="#116FFF" p-id="8252"></path><path d="M970.436923 715.224615c-26.781538 0-47.261538-20.48-47.261538-47.261538 0-4.726154 3.150769-7.876923 7.876923-7.876923s7.876923 3.150769 7.876923 7.876923c0 17.329231 14.178462 31.507692 31.507692 31.507692s31.507692-14.178462 31.507692-31.507692c0-4.726154 3.150769-7.876923 7.876923-7.876923s7.876923 3.150769 7.876924 7.876923c0 26.781538-22.055385 47.261538-47.261539 47.261538zM970.436923 652.209231c-4.726154 0-7.876923-3.150769-7.876923-7.876923v-15.753846c0-4.726154 3.150769-7.876923 7.876923-7.876924s7.876923 3.150769 7.876923 7.876924v15.753846c0 4.726154-4.726154 7.876923-7.876923 7.876923z" fill="#116FFF" p-id="8253"></path><path d="M1009.821538 675.84c-4.726154 0-7.876923-3.150769-7.876923-7.876923v-31.507692c0-4.726154 3.150769-7.876923 7.876923-7.876923s7.876923 3.150769 7.876924 7.876923v31.507692c0 4.726154-4.726154 7.876923-7.876924 7.876923zM931.052308 675.84c-4.726154 0-7.876923-3.150769-7.876923-7.876923v-31.507692c0-4.726154 3.150769-7.876923 7.876923-7.876923s7.876923 3.150769 7.876923 7.876923v31.507692c0 4.726154-4.726154 7.876923-7.876923 7.876923zM970.436923 715.224615c-4.726154 0-7.876923-3.150769-7.876923-7.876923v-31.507692c0-4.726154 3.150769-7.876923 7.876923-7.876923s7.876923 3.150769 7.876923 7.876923v31.507692c0 4.726154-4.726154 7.876923-7.876923 7.876923z" fill="#116FFF" p-id="8254"></path><path d="M844.406154 589.193846c-26.781538 0-47.261538-20.48-47.261539-47.261538s20.48-47.261538 47.261539-47.261539 47.261538 20.48 47.261538 47.261539-22.055385 47.261538-47.261538 47.261538z m0-78.769231c-17.329231 0-31.507692 14.178462-31.507692 31.507693s14.178462 31.507692 31.507692 31.507692 31.507692-14.178462 31.507692-31.507692-14.178462-31.507692-31.507692-31.507693z" fill="#116FFF" p-id="8255"></path><path d="M844.406154 620.701538c-26.781538 0-47.261538-20.48-47.261539-47.261538 0-4.726154 3.150769-7.876923 7.876923-7.876923s7.876923 3.150769 7.876924 7.876923c0 17.329231 14.178462 31.507692 31.507692 31.507692s31.507692-14.178462 31.507692-31.507692c0-4.726154 3.150769-7.876923 7.876923-7.876923s7.876923 3.150769 7.876923 7.876923c0 26.781538-22.055385 47.261538-47.261538 47.261538zM844.406154 557.686154c-4.726154 0-7.876923-3.150769-7.876923-7.876923v-15.753846c0-4.726154 3.150769-7.876923 7.876923-7.876923s7.876923 3.150769 7.876923 7.876923v15.753846c0 4.726154-4.726154 7.876923-7.876923 7.876923z" fill="#116FFF" p-id="8256"></path><path d="M883.790769 581.316923c-4.726154 0-7.876923-3.150769-7.876923-7.876923v-31.507692c0-4.726154 3.150769-7.876923 7.876923-7.876923s7.876923 3.150769 7.876923 7.876923v31.507692c0 4.726154-4.726154 7.876923-7.876923 7.876923zM805.021538 581.316923c-4.726154 0-7.876923-3.150769-7.876923-7.876923v-31.507692c0-4.726154 3.150769-7.876923 7.876923-7.876923s7.876923 3.150769 7.876924 7.876923v31.507692c0 4.726154-4.726154 7.876923-7.876924 7.876923zM844.406154 620.701538c-4.726154 0-7.876923-3.150769-7.876923-7.876923v-31.507692c0-4.726154 3.150769-7.876923 7.876923-7.876923s7.876923 3.150769 7.876923 7.876923v31.507692c0 4.726154-4.726154 7.876923-7.876923 7.876923z" fill="#116FFF" p-id="8257"></path><path d="M663.236923 1014.547692h-645.907692c-4.726154 0-7.876923-3.150769-7.876923-7.876923v-110.276923c0-67.741538 34.658462-92.947692 99.24923-118.153846 67.741538-25.206154 122.88-48.836923 155.963077-67.741538 3.150769-1.575385 7.876923 0 11.027693 3.150769 1.575385 3.150769 0 7.876923-3.15077 11.027692-36.233846 18.904615-88.221538 42.535385-159.113846 69.316923-59.864615 22.055385-89.796923 44.110769-89.796923 102.4v102.4H661.661538c4.726154 0 7.876923 3.150769 7.876924 7.876923 1.575385 4.726154-3.150769 7.876923-6.301539 7.876923zM497.821538 730.978462c-108.701538 0-283.569231-154.387692-283.56923-338.707693 0-4.726154 3.150769-7.876923 7.876923-7.876923s7.876923 3.150769 7.876923 7.876923c0 174.867692 163.84 322.953846 267.815384 322.953846s267.815385-148.086154 267.815385-322.953846c0-4.726154 3.150769-7.876923 7.876923-7.876923s7.876923 3.150769 7.876923 7.876923c0 184.32-174.867692 338.707692-283.569231 338.707693zM497.821538 793.993846c-4.726154 0-7.876923-3.150769-7.876923-7.876923s3.150769-7.876923 7.876923-7.876923 7.876923 3.150769 7.876924 7.876923-3.150769 7.876923-7.876924 7.876923zM497.821538 857.009231c-4.726154 0-7.876923-3.150769-7.876923-7.876923s3.150769-7.876923 7.876923-7.876923 7.876923 3.150769 7.876924 7.876923-3.150769 7.876923-7.876924 7.876923z" fill="#116FFF" p-id="8258"></path><path d="M497.821538 920.024615c-4.726154 0-7.876923-3.150769-7.876923-7.876923s3.150769-7.876923 7.876923-7.876923 7.876923 3.150769 7.876924 7.876923-3.150769 7.876923-7.876924 7.876923zM497.821538 983.04c-4.726154 0-7.876923-3.150769-7.876923-7.876923s3.150769-7.876923 7.876923-7.876923 7.876923 3.150769 7.876924 7.876923-3.150769 7.876923-7.876924 7.876923z" fill="#116FFF" p-id="8259"></path><path d="M694.744615 699.470769c-4.726154 0-7.876923-3.150769-7.876923-7.876923v-31.507692c0-4.726154 3.150769-7.876923 7.876923-7.876923s7.876923 3.150769 7.876923 7.876923v31.507692c0 4.726154-4.726154 7.876923-7.876923 7.876923z" fill="#116FFF" p-id="8260"></path><path d="M615.975385 809.747692c-1.575385 0-3.150769 0-4.726154-1.575384-3.150769-3.150769-4.726154-7.876923-1.575385-11.027693l78.769231-110.276923c3.150769-3.150769 7.876923-4.726154 11.027692-1.575384 3.150769 3.150769 4.726154 7.876923 1.575385 11.027692l-78.769231 110.276923c-1.575385 3.150769-4.726154 3.150769-6.301538 3.150769z" fill="#116FFF" p-id="8261"></path><path d="M615.975385 809.747692c-1.575385 0-3.150769 0-3.15077-1.575384l-94.523077-47.261539c-3.150769-1.575385-4.726154-6.301538-3.150769-11.027692 1.575385-3.150769 6.301538-4.726154 11.027693-3.150769l94.523076 47.261538c3.150769 1.575385 4.726154 6.301538 3.15077 11.027692-3.150769 3.150769-6.301538 4.726154-7.876923 4.726154z" fill="#116FFF" p-id="8262"></path><path d="M300.898462 699.470769c-4.726154 0-7.876923-3.150769-7.876924-7.876923v-31.507692c0-4.726154 3.150769-7.876923 7.876924-7.876923s7.876923 3.150769 7.876923 7.876923v31.507692c0 4.726154-4.726154 7.876923-7.876923 7.876923z" fill="#116FFF" p-id="8263"></path><path d="M379.667692 809.747692c-3.150769 0-4.726154-1.575385-6.301538-3.150769l-78.769231-110.276923c-3.150769-3.150769-1.575385-7.876923 1.575385-11.027692 3.150769-3.150769 7.876923-1.575385 11.027692 1.575384l78.769231 110.276923c3.150769 3.150769 1.575385 7.876923-1.575385 11.027693-1.575385 1.575385-3.150769 1.575385-4.726154 1.575384z" fill="#116FFF" p-id="8264"></path><path d="M379.667692 809.747692c-3.150769 0-6.301538-1.575385-6.301538-4.726154-1.575385-3.150769 0-7.876923 3.150769-11.027692l94.523077-47.261538c3.150769-1.575385 7.876923 0 11.027692 3.150769 1.575385 3.150769 0 7.876923-3.150769 11.027692l-94.523077 47.261539c-3.150769 1.575385-4.726154 1.575385-4.726154 1.575384z" fill="#116FFF" p-id="8265"></path><path d="M222.129231 368.64H220.553846c-3.150769 0-6.301538-3.150769-6.301538-6.301538-11.027692-115.003077 17.329231-203.224615 81.92-263.089231C430.08-25.206154 678.990769 12.603077 690.018462 14.178462c3.150769 0 6.301538 3.150769 6.301538 6.301538s-1.575385 6.301538-4.726154 7.876923c-56.713846 23.630769-47.261538 78.769231-42.535384 97.673846 17.329231-1.575385 61.44 1.575385 96.098461 36.233846 39.384615 39.384615 50.412308 107.126154 36.233846 200.073847 0 3.150769-3.150769 6.301538-6.301538 6.301538s-6.301538-1.575385-7.876923-3.150769l-66.166154-107.126154c-25.206154 9.452308-118.153846 44.110769-204.8 44.110769s-179.593846-33.083077-204.8-42.535384l-63.015385 107.126153c-1.575385 1.575385-4.726154 1.575385-6.301538 1.575385z m482.067692-127.606154c3.150769 0 4.726154 1.575385 6.301539 3.150769l58.28923 94.523077c9.452308-77.193846-3.150769-132.332308-34.658461-165.415384-36.233846-37.809231-88.221538-31.507692-89.796923-31.507693-3.150769 0-7.876923-1.575385-7.876923-4.726153 0-1.575385-23.630769-72.467692 28.356923-110.276924C598.646154 20.48 414.326154 11.027692 307.2 110.276923c-56.713846 51.987692-81.92 127.606154-78.769231 225.28l53.563077-91.372308c1.575385-3.150769 6.301538-4.726154 9.452308-3.150769 1.575385 0 108.701538 44.110769 204.8 44.110769s204.8-44.110769 206.375384-44.110769h1.575385zM521.452308 1014.547692c-4.726154 0-7.876923-3.150769-7.876923-7.876923v-220.553846c0-4.726154 3.150769-7.876923 7.876923-7.876923s7.876923 3.150769 7.876923 7.876923v220.553846c0 4.726154-4.726154 7.876923-7.876923 7.876923zM474.190769 1014.547692c-4.726154 0-7.876923-3.150769-7.876923-7.876923v-220.553846c0-4.726154 3.150769-7.876923 7.876923-7.876923s7.876923 3.150769 7.876923 7.876923v220.553846c0 4.726154-4.726154 7.876923-7.876923 7.876923z" fill="#116FFF" p-id="8266"></path></svg>