<?xml version="1.0" standalone="no"?><!DOCTYPE svg PUBLIC "-//W3C//DTD SVG 1.1//EN" "http://www.w3.org/Graphics/SVG/1.1/DTD/svg11.dtd"><svg t="1769243146279" class="icon" viewBox="0 0 1328 1024" version="1.1" xmlns="http://www.w3.org/2000/svg" p-id="1612" xmlns:xlink="http://www.w3.org/1999/xlink" width="259.375" height="200"><path d="M126.201081 526.169946L4.594162 469.18573c-2.933622-1.383784-4.317405-4.92627-2.933621-7.859892L216.064 4.317405A5.977946 5.977946 0 0 1 223.951568 1.383784l121.523891 57.011892c2.933622 1.383784 4.345081 4.92627 2.933622 7.859892L134.060973 523.402378a5.922595 5.922595 0 0 1-7.887568 2.767568zM1320.268108 476.021622l-123.378162 53.275675a6.144 6.144 0 0 1-7.887568-3.099675L997.708108 82.307459a6.144 6.144 0 0 1 3.099676-7.859891L1124.15827 21.171892a6.144 6.144 0 0 1 7.887568 3.072l191.515676 443.696432a6.199351 6.199351 0 0 1-3.26573 8.025946z m-206.01773 126.477837c-4.621838-13.754811 9.132973-37.085405 15.304649-62.380973 6.005622-25.350919-164.03373-390.891243-166.054054-394.931891-1.992649-4.012973-108.848432-14.197622-160.601946-33.958054-51.753514-19.760432-131.736216-39.548541-221.626811 23.635027l-211.110054 0.774918-23.801081 63.460325h126.976s-37.085405 47.270054-37.085405 93.433081c0 46.190703-21.31027 101.459027-22.832433 123.405838-1.549838 21.780757 21.753081 60.858811 76.108108 48.183351 54.382703-12.675459 97.003243-57.925189 107.658379-99.466378 10.655135-41.679568 27.952432-79.235459 61.938162-80.148757 33.98573-1.079351 49.733189-3.542486 98.995892 47.270054 49.262703 50.812541 289.875027 270.557405 313.205621 290.954378 23.330595 20.230919 18.210595 62.380973 6.642163 79.23546-11.596108 16.826811-47.270054 20.839784-82.777946-5.562811-35.535568-26.402595-211.442162-162.317838-220.381406-171.284757-8.966919-8.939243-28.284541-5.535135-33.819675 1.107027-5.12 6.144-7.583135 22.361946 6.78054 35.037406 14.391351 12.675459 222.706162 170.952649 232.586378 180.86054 9.880216 9.880216 16.688432 47.242378 3.542487 61.910487-13.11827 14.668108-42.150054 13.145946-66.56-6.005622-24.38227-19.317622-181.912216-138.378378-192.89946-149.171892-10.959568-10.987243-27.952432-6.503784-33.653621 0.913298-4.621838 6.005622-12.979892 19.926486 11.430054 38.745945 24.409946 18.847135 165.555892 126.339459 178.231351 139.153298 12.647784 12.675459 14.668108 41.707243 3.072 55.904865-11.734486 14.225297-40.12973 11.125622-63.460324-3.072-23.330595-14.225297-144.107243-106.108541-157.529946-117.234163a21.559351 21.559351 0 0 0-29.50227 1.107027c-2.490811 3.044324-14.52973 19.289946 7.417081 35.978379 21.780757 16.660757 97.916541 78.737297 105.638054 84.300108 7.555459 5.562811 6.642162 26.873081-5.562811 36.614919-12.204973 9.575784-38.607568 11.125622-67.500973-15.304649-21.614703-19.594378-61.44-50.646486-80.314811-65.176216a52.085622 52.085622 0 0 0-21.448648-47.104l-6.503784-4.621838a51.504432 51.504432 0 0 0-44.779243-7.721513l-22.860109-20.839784a54.244324 54.244324 0 0 0-21.144216-56.236973l-5.092324-3.542487a54.521081 54.521081 0 0 0-47.878919-7.721513l-19.483676-17.60173a62.602378 62.602378 0 0 0-20.978162-75.526919l-4.040648-2.933621a62.547027 62.547027 0 0 0-59.917838-7.112649l-86.624865-118.894703-23.330595 50.784865 73.811027 101.791135-51.116973 71.04346a62.491676 62.491676 0 0 0 14.225298 87.261405l4.012973 2.933622a62.491676 62.491676 0 0 0 85.407135-11.900541c1.549838 6.33773 3.238054 12.038919 5.092324 17.158919-13.588757 23.773405-7.251027 54.521081 15.609081 70.84973l5.092324 3.597838c20.369297 14.668108 47.408432 13.11827 65.951136-2.020325 5.258378 2.767568 10.489081 5.396757 15.747459 7.721514a52.168649 52.168649 0 0 0 13.284324 70.877405l6.476108 4.649514a52.307027 52.307027 0 0 0 72.89773-11.900541l4.48346-6.171675c3.708541 4.455784 7.084973 8.634811 10.350702 12.509405v10.350703c0 31.190486 25.323243 56.51373 56.51373 56.513729 26.264216 0 48.349405-18.072216 54.687135-42.343783 12.647784 3.736216 52.805189 14.086919 80.287135 6.365405 33.044757-9.132973 45.720216-44.640865 50.203676-48.183351 4.621838-3.570162 35.978378 29.474595 69.493622 21.31027 33.515243-8.192 67.943784-15.304649 73.063783-84.327784 0 0 57.288649 0.470486 79.207784-20.839784 21.780757-21.31027 24.409946-43.727568 25.959784-76.163459 0 0 34.594595 2.490811 63.930811-25.323243 29.50227-27.952432 27.952432-43.699892 30.443243-67.943784 1.826595-25.323243-15.000216-53.275676-19.483676-67.030487z" fill="#666666" p-id="1613"></path></svg>