<?xml version="1.0" standalone="no"?><!DOCTYPE svg PUBLIC "-//W3C//DTD SVG 1.1//EN" "http://www.w3.org/Graphics/SVG/1.1/DTD/svg11.dtd"><svg t="1769266529888" class="icon" viewBox="0 0 1024 1024" version="1.1" xmlns="http://www.w3.org/2000/svg" p-id="7183" xmlns:xlink="http://www.w3.org/1999/xlink" width="200" height="200"><path d="M427 463.445c0-40.33 32.27-73.445 72.601-73.445H508V258h-67v-79h-57V62h-77v117h-46.717l-0.388 79H183v609h244V463.445z" fill="#BDCCD4" p-id="7184"></path><path d="M832 867V463.445c0-40.33-32.63-73.445-72.961-73.445H499.601C459.27 390 427 423.115 427 463.445V867H64v105h897V867H832z m-233 0h-86V756h86v111z m0-160h-86v-85h86v85z m0-146h-86v-86h86v86z m146 306h-85V756h85v111z m0-160h-85v-85h85v85z m0-146h-85v-86h85v86z" fill="#F29440" p-id="7185"></path></svg>